$MeshFormat
4.1 0 8
$EndMeshFormat
$Entities
24 39 0 0
1 0 0 0 0 
2 5 0 0 0 
3 10 0 0 0 
4 0 6 0 0 
5 5 6 0 0 
6 10 6 0 0 
7 0 0 3 0 
8 5 0 3 0 
9 10 0 3 0 
10 0 6 3 0 
11 5 6 3 0 
12 10 6 3 0 
13 0 0 6 0 
14 5 0 6 0 
15 10 0 6 0 
16 0 6 6 0 
17 5 6 6 0 
18 10 6 6 0 
19 0 0 9 0 
20 5 0 9 0 
21 10 0 9 0 
22 0 6 9 0 
23 5 6 9 0 
24 10 6 9 0 
1 -1e-07 -1e-07 -1.000000000583867e-07 1e-07 1e-07 3.0000001 0 2 1 -7 
2 4.9999999 -1e-07 -1.000000000583867e-07 5.0000001 1e-07 3.0000001 0 2 2 -8 
3 9.999999900000001 -1e-07 -1.000000000583867e-07 10.0000001 1e-07 3.0000001 0 2 3 -9 
4 -1e-07 5.9999999 -1.000000000583867e-07 1e-07 6.0000001 3.0000001 0 2 4 -10 
5 4.9999999 5.9999999 -1.000000000583867e-07 5.0000001 6.0000001 3.0000001 0 2 5 -11 
6 9.999999900000001 5.9999999 -1.000000000583867e-07 10.0000001 6.0000001 3.0000001 0 2 6 -12 
7 -1e-07 -1e-07 2.9999999 1e-07 1e-07 6.0000001 0 2 7 -13 
8 4.9999999 -1e-07 2.9999999 5.0000001 1e-07 6.0000001 0 2 8 -14 
9 9.999999900000001 -1e-07 2.9999999 10.0000001 1e-07 6.0000001 0 2 9 -15 
10 -1e-07 5.9999999 2.9999999 1e-07 6.0000001 6.0000001 0 2 10 -16 
11 4.9999999 5.9999999 2.9999999 5.0000001 6.0000001 6.0000001 0 2 11 -17 
12 9.999999900000001 5.9999999 2.9999999 10.0000001 6.0000001 6.0000001 0 2 12 -18 
13 -1e-07 -1e-07 5.9999999 1e-07 1e-07 9.000000099999999 0 2 13 -19 
14 4.9999999 -1e-07 5.9999999 5.0000001 1e-07 9.000000099999999 0 2 14 -20 
15 9.999999900000001 -1e-07 5.9999999 10.0000001 1e-07 9.000000099999999 0 2 15 -21 
16 -1e-07 5.9999999 5.9999999 1e-07 6.0000001 9.000000099999999 0 2 16 -22 
17 4.9999999 5.9999999 5.9999999 5.0000001 6.0000001 9.000000099999999 0 2 17 -23 
18 9.999999900000001 5.9999999 5.9999999 10.0000001 6.0000001 9.000000099999999 0 2 18 -24 
19 -9.999999983634211e-08 -1e-07 2.9999999 5.0000001 1e-07 3.0000001 0 2 7 -8 
20 4.9999999 -1e-07 2.9999999 10.0000001 1e-07 3.0000001 0 2 8 -9 
21 -9.999999983634211e-08 5.9999999 2.9999999 5.0000001 6.0000001 3.0000001 0 2 10 -11 
22 4.9999999 5.9999999 2.9999999 10.0000001 6.0000001 3.0000001 0 2 11 -12 
23 -9.999999983634211e-08 -1e-07 5.9999999 5.0000001 1e-07 6.0000001 0 2 13 -14 
24 4.9999999 -1e-07 5.9999999 10.0000001 1e-07 6.0000001 0 2 14 -15 
25 -9.999999983634211e-08 5.9999999 5.9999999 5.0000001 6.0000001 6.0000001 0 2 16 -17 
26 4.9999999 5.9999999 5.9999999 10.0000001 6.0000001 6.0000001 0 2 17 -18 
27 -9.999999983634211e-08 -1e-07 8.999999900000001 5.0000001 1e-07 9.000000099999999 0 2 19 -20 
28 4.9999999 -1e-07 8.999999900000001 10.0000001 1e-07 9.000000099999999 0 2 20 -21 
29 -9.999999983634211e-08 5.9999999 8.999999900000001 5.0000001 6.0000001 9.000000099999999 0 2 22 -23 
30 4.9999999 5.9999999 8.999999900000001 10.0000001 6.0000001 9.000000099999999 0 2 23 -24 
31 -1e-07 -9.999999983634211e-08 2.9999999 1e-07 6.0000001 3.0000001 0 2 7 -10 
32 4.9999999 -9.999999983634211e-08 2.9999999 5.0000001 6.0000001 3.0000001 0 2 8 -11 
33 9.999999900000001 -9.999999983634211e-08 2.9999999 10.0000001 6.0000001 3.0000001 0 2 9 -12 
34 -1e-07 -9.999999983634211e-08 5.9999999 1e-07 6.0000001 6.0000001 0 2 13 -16 
35 4.9999999 -9.999999983634211e-08 5.9999999 5.0000001 6.0000001 6.0000001 0 2 14 -17 
36 9.999999900000001 -9.999999983634211e-08 5.9999999 10.0000001 6.0000001 6.0000001 0 2 15 -18 
37 -1e-07 -9.999999983634211e-08 8.999999900000001 1e-07 6.0000001 9.000000099999999 0 2 19 -22 
38 4.9999999 -9.999999983634211e-08 8.999999900000001 5.0000001 6.0000001 9.000000099999999 0 2 20 -23 
39 9.999999900000001 -9.999999983634211e-08 8.999999900000001 10.0000001 6.0000001 9.000000099999999 0 2 21 -24 
$EndEntities
$Nodes
63 153 1 153
0 1 0 1
1
0 0 0
0 2 0 1
2
5 0 0
0 3 0 1
3
10 0 0
0 4 0 1
4
0 6 0
0 5 0 1
5
5 6 0
0 6 0 1
6
10 6 0
0 7 0 1
7
0 0 3
0 8 0 1
8
5 0 3
0 9 0 1
9
10 0 3
0 10 0 1
10
0 6 3
0 11 0 1
11
5 6 3
0 12 0 1
12
10 6 3
0 13 0 1
13
0 0 6
0 14 0 1
14
5 0 6
0 15 0 1
15
10 0 6
0 16 0 1
16
0 6 6
0 17 0 1
17
5 6 6
0 18 0 1
18
10 6 6
0 19 0 1
19
0 0 9
0 20 0 1
20
5 0 9
0 21 0 1
21
10 0 9
0 22 0 1
22
0 6 9
0 23 0 1
23
5 6 9
0 24 0 1
24
10 6 9
1 1 0 2
25
26
0 0 1
0 0 2
1 2 0 2
27
28
5 0 1
5 0 2
1 3 0 2
29
30
10 0 1
10 0 2
1 4 0 2
31
32
0 6 1
0 6 2
1 5 0 2
33
34
5 6 1
5 6 2
1 6 0 2
35
36
10 6 1
10 6 2
1 7 0 2
37
38
0 0 4
0 0 5
1 8 0 2
39
40
5 0 4
5 0 5
1 9 0 2
41
42
10 0 4
10 0 5
1 10 0 2
43
44
0 6 4
0 6 5
1 11 0 2
45
46
5 6 4
5 6 5
1 12 0 2
47
48
10 6 4
10 6 5
1 13 0 2
49
50
0 0 7
0 0 8
1 14 0 2
51
52
5 0 7
5 0 8
1 15 0 2
53
54
10 0 7
10 0 8
1 16 0 2
55
56
0 6 7
0 6 8
1 17 0 2
57
58
5 6 7
5 6 8
1 18 0 2
59
60
10 6 7
10 6 8
1 19 0 4
61
62
63
64
1 0 3
2 0 3
3 0 3
4 0 3
1 20 0 4
65
66
67
68
6 0 3
7 0 3
8 0 3
9 0 3
1 21 0 4
69
70
71
72
1 6 3
2 6 3
3 6 3
4 6 3
1 22 0 4
73
74
75
76
6 6 3
7 6 3
8 6 3
9 6 3
1 23 0 4
77
78
79
80
1 0 6
2 0 6
3 0 6
4 0 6
1 24 0 4
81
82
83
84
6 0 6
7 0 6
8 0 6
9 0 6
1 25 0 4
85
86
87
88
1 6 6
2 6 6
3 6 6
4 6 6
1 26 0 4
89
90
91
92
6 6 6
7 6 6
8 6 6
9 6 6
1 27 0 4
93
94
95
96
1 0 9
2 0 9
3 0 9
4 0 9
1 28 0 4
97
98
99
100
6 0 9
7 0 9
8 0 9
9 0 9
1 29 0 4
101
102
103
104
1 6 9
2 6 9
3 6 9
4 6 9
1 30 0 4
105
106
107
108
6 6 9
7 6 9
8 6 9
9 6 9
1 31 0 5
109
110
111
112
113
0 1 3
0 2 3
0 3 3
0 4 3
0 5 3
1 32 0 5
114
115
116
117
118
5 1 3
5 2 3
5 3 3
5 4 3
5 5 3
1 33 0 5
119
120
121
122
123
10 1 3
10 2 3
10 3 3
10 4 3
10 5 3
1 34 0 5
124
125
126
127
128
0 1 6
0 2 6
0 3 6
0 4 6
0 5 6
1 35 0 5
129
130
131
132
133
5 1 6
5 2 6
5 3 6
5 4 6
5 5 6
1 36 0 5
134
135
136
137
138
10 1 6
10 2 6
10 3 6
10 4 6
10 5 6
1 37 0 5
139
140
141
142
143
0 1 9
0 2 9
0 3 9
0 4 9
0 5 9
1 38 0 5
144
145
146
147
148
5 1 9
5 2 9
5 3 9
5 4 9
5 5 9
1 39 0 5
149
150
151
152
153
10 1 9
10 2 9
10 3 9
10 4 9
10 5 9
$EndNodes
$Elements
63 192 1 192
0 1 15 1
1 1 
0 2 15 1
2 2 
0 3 15 1
3 3 
0 4 15 1
4 4 
0 5 15 1
5 5 
0 6 15 1
6 6 
0 7 15 1
7 7 
0 8 15 1
8 8 
0 9 15 1
9 9 
0 10 15 1
10 10 
0 11 15 1
11 11 
0 12 15 1
12 12 
0 13 15 1
13 13 
0 14 15 1
14 14 
0 15 15 1
15 15 
0 16 15 1
16 16 
0 17 15 1
17 17 
0 18 15 1
18 18 
0 19 15 1
19 19 
0 20 15 1
20 20 
0 21 15 1
21 21 
0 22 15 1
22 22 
0 23 15 1
23 23 
0 24 15 1
24 24 
1 1 1 3
25 1 25 
26 25 26 
27 26 7 
1 2 1 3
28 2 27 
29 27 28 
30 28 8 
1 3 1 3
31 3 29 
32 29 30 
33 30 9 
1 4 1 3
34 4 31 
35 31 32 
36 32 10 
1 5 1 3
37 5 33 
38 33 34 
39 34 11 
1 6 1 3
40 6 35 
41 35 36 
42 36 12 
1 7 1 3
43 7 37 
44 37 38 
45 38 13 
1 8 1 3
46 8 39 
47 39 40 
48 40 14 
1 9 1 3
49 9 41 
50 41 42 
51 42 15 
1 10 1 3
52 10 43 
53 43 44 
54 44 16 
1 11 1 3
55 11 45 
56 45 46 
57 46 17 
1 12 1 3
58 12 47 
59 47 48 
60 48 18 
1 13 1 3
61 13 49 
62 49 50 
63 50 19 
1 14 1 3
64 14 51 
65 51 52 
66 52 20 
1 15 1 3
67 15 53 
68 53 54 
69 54 21 
1 16 1 3
70 16 55 
71 55 56 
72 56 22 
1 17 1 3
73 17 57 
74 57 58 
75 58 23 
1 18 1 3
76 18 59 
77 59 60 
78 60 24 
1 19 1 5
79 7 61 
80 61 62 
81 62 63 
82 63 64 
83 64 8 
1 20 1 5
84 8 65 
85 65 66 
86 66 67 
87 67 68 
88 68 9 
1 21 1 5
89 10 69 
90 69 70 
91 70 71 
92 71 72 
93 72 11 
1 22 1 5
94 11 73 
95 73 74 
96 74 75 
97 75 76 
98 76 12 
1 23 1 5
99 13 77 
100 77 78 
101 78 79 
102 79 80 
103 80 14 
1 24 1 5
104 14 81 
105 81 82 
106 82 83 
107 83 84 
108 84 15 
1 25 1 5
109 16 85 
110 85 86 
111 86 87 
112 87 88 
113 88 17 
1 26 1 5
114 17 89 
115 89 90 
116 90 91 
117 91 92 
118 92 18 
1 27 1 5
119 19 93 
120 93 94 
121 94 95 
122 95 96 
123 96 20 
1 28 1 5
124 20 97 
125 97 98 
126 98 99 
127 99 100 
128 100 21 
1 29 1 5
129 22 101 
130 101 102 
131 102 103 
132 103 104 
133 104 23 
1 30 1 5
134 23 105 
135 105 106 
136 106 107 
137 107 108 
138 108 24 
1 31 1 6
139 7 109 
140 109 110 
141 110 111 
142 111 112 
143 112 113 
144 113 10 
1 32 1 6
145 8 114 
146 114 115 
147 115 116 
148 116 117 
149 117 118 
150 118 11 
1 33 1 6
151 9 119 
152 119 120 
153 120 121 
154 121 122 
155 122 123 
156 123 12 
1 34 1 6
157 13 124 
158 124 125 
159 125 126 
160 126 127 
161 127 128 
162 128 16 
1 35 1 6
163 14 129 
164 129 130 
165 130 131 
166 131 132 
167 132 133 
168 133 17 
1 36 1 6
169 15 134 
170 134 135 
171 135 136 
172 136 137 
173 137 138 
174 138 18 
1 37 1 6
175 19 139 
176 139 140 
177 140 141 
178 141 142 
179 142 143 
180 143 22 
1 38 1 6
181 20 144 
182 144 145 
183 145 146 
184 146 147 
185 147 148 
186 148 23 
1 39 1 6
187 21 149 
188 149 150 
189 150 151 
190 151 152 
191 152 153 
192 153 24 
$EndElements
